<svg width="122" height="122" viewBox="0 0 122 122" fill="none" xmlns="http://www.w3.org/2000/svg">
<g clip-path="url(#clip0_3003_70859)">
<path d="M0 0H122V122H0V0ZM112.006 92.903C111.117 87.3367 107.492 82.6601 96.7409 78.2986C92.9996 76.5448 88.8414 75.3248 87.6062 72.5036C87.1436 70.8261 87.0724 69.9111 87.3723 68.9198C88.1348 65.636 92.0236 64.6498 95.0736 65.5648C97.0561 66.1748 98.8861 67.6998 100.035 70.1398C105.291 66.7035 105.291 66.7035 108.956 64.4211C107.584 62.2861 106.903 61.366 105.977 60.4561C102.775 56.8723 98.5099 55.0423 91.5712 55.1999L87.9874 55.6523C84.5511 56.4911 81.2774 58.3211 79.2949 60.7611C73.4999 67.3237 75.1723 78.7612 82.1873 83.4887C89.1261 88.6737 99.2724 89.8123 100.569 94.6974C101.789 100.645 96.1462 102.551 90.5748 101.865C86.4523 100.95 84.1698 98.8861 81.6536 95.0736L72.3511 100.416C73.4186 102.856 74.6386 103.919 76.4686 106.054C85.3136 114.98 107.426 114.522 111.396 100.95C111.544 100.492 112.616 97.3662 111.772 92.5624L112.006 92.903ZM66.3426 56.0743H54.9153C54.9153 65.9258 54.8695 75.7163 54.8695 85.583C54.8695 91.8457 55.1898 97.5949 54.168 99.3639C52.4905 102.866 48.1697 102.419 46.2075 101.804C44.1945 100.808 43.1728 99.4351 41.9883 97.4577C41.6681 96.9239 41.4292 96.4613 41.3428 96.4613L32.0657 102.18C33.6161 105.383 35.8782 108.138 38.796 109.892C43.1423 112.484 48.983 113.323 55.0983 111.95C59.0785 110.801 62.5098 108.438 64.3042 104.778C66.8967 100.05 66.3477 94.2552 66.3223 87.7688C66.3833 77.3277 66.3223 66.8814 66.3223 56.3589L66.3426 56.0743Z" fill="#9BC0ED"/>
</g>
<defs>
<clipPath id="clip0_3003_70859">
<rect width="122" height="122" fill="white"/>
</clipPath>
</defs>
</svg>
