<svg width="122" height="122" viewBox="0 0 122 122" fill="none" xmlns="http://www.w3.org/2000/svg">
<g clip-path="url(#clip0_2939_97309)">
<path d="M60.9897 122.001C59.358 122.001 57.7313 121.574 56.3029 120.746L41.3782 111.916C39.1517 110.671 40.2396 110.228 40.9716 109.969C43.9453 108.937 44.5452 108.698 47.7222 106.899C48.0527 106.711 48.4898 106.782 48.8304 106.985L60.2984 113.792C60.7152 114.02 61.2998 114.02 61.6811 113.792L106.389 87.9887C106.806 87.7498 107.07 87.2719 107.07 86.7788V35.183C107.07 34.6798 106.801 34.207 106.374 33.9529L61.6862 8.17019C61.2744 7.93127 60.7254 7.93127 60.3086 8.17019L15.6312 33.9579C15.1991 34.207 14.9246 34.695 14.9246 35.183V86.7788C14.9246 87.2719 15.1991 87.7396 15.6312 87.9734L27.8769 95.0494C34.5208 98.3739 38.5926 94.4598 38.5926 90.5253V39.5852C38.5926 38.8634 39.1721 38.2991 39.8939 38.2991H45.5618C46.2684 38.2991 46.8581 38.8684 46.8581 39.5852V90.5253C46.8581 99.3957 42.0289 104.479 33.6211 104.479C31.0387 104.479 29.0003 104.479 23.3222 101.678L11.5899 94.9325C8.69241 93.2601 6.90308 90.1288 6.90308 86.7788V35.183C6.90308 31.8331 8.69749 28.7018 11.5899 27.0344L56.2978 1.20094C59.1292 -0.400312 62.8858 -0.400312 65.6918 1.20094L110.395 27.0344C113.292 28.7069 115.092 31.8331 115.092 35.183V86.7788C115.092 90.1288 113.292 93.2499 110.395 94.9325L65.6918 120.746C64.2685 121.574 62.6469 122.001 60.9897 122.001ZM97.0865 71.1323C97.0865 61.474 90.5595 58.9018 76.8193 57.0871C62.9367 55.252 61.5235 54.3014 61.5235 51.0532C61.5235 48.3692 62.7181 44.7854 73.0017 44.7854C82.1872 44.7854 85.5727 46.7628 86.9656 52.9543C87.0876 53.5389 87.6213 53.9659 88.2212 53.9659H94.0212C94.3822 53.9659 94.7227 53.8083 94.9667 53.5542C95.2107 53.2797 95.3429 52.9289 95.3073 52.5578C94.4076 41.893 87.3214 36.9215 73.0017 36.9215C60.2527 36.9215 52.648 42.2997 52.648 51.3226C52.648 61.108 60.212 63.8124 72.4476 65.0222C87.0876 66.4557 88.2212 68.5958 88.2212 71.4729C88.2212 76.4698 84.2104 78.5998 74.791 78.5998C62.9621 78.5998 60.3594 75.6311 59.4851 69.7446C59.3834 69.1143 58.8446 68.6517 58.199 68.6517H52.4192C51.7025 68.6517 51.1281 69.221 51.1281 69.9378C51.1281 77.4713 55.2252 86.4484 74.791 86.4484C88.9633 86.4535 97.0865 80.8771 97.0865 71.1323Z" fill="#9BC0ED"/>
</g>
<defs>
<clipPath id="clip0_2939_97309">
<rect width="122" height="122" fill="white"/>
</clipPath>
</defs>
</svg>
