<svg width="122" height="116" viewBox="0 0 122 116" fill="none" xmlns="http://www.w3.org/2000/svg">
<path d="M84.5561 80.8921C88.9786 80.5108 92.3997 76.6221 92.1811 71.9759C91.9422 67.3298 88.1348 63.5986 83.4937 63.5986H83.1836C80.8804 63.6807 78.7041 64.6741 77.1332 66.3604C75.5623 68.0467 74.7253 70.2878 74.8063 72.591C74.9588 75.0259 75.9551 77.0084 77.3174 78.4521C71.9901 88.8119 63.994 96.4268 51.8753 102.827C43.7268 107.087 35.1207 108.693 26.7433 107.554C19.7385 106.563 14.2587 103.437 10.9037 98.4093C5.88134 90.7893 5.42384 82.5696 9.60743 74.3448C12.6574 68.3973 17.2273 64.0612 20.2773 61.9262C19.3566 59.3731 18.6426 56.7501 18.1423 54.0826C-4.4124 70.2374 -2.11474 92.3194 4.73759 102.756C9.84126 110.37 20.2773 115.24 31.6996 115.24C34.7496 115.24 37.9521 115.017 41.0682 114.254C60.8779 110.447 75.8788 98.5668 84.4849 81.0497L84.5561 80.8921ZM111.742 61.8499C99.9484 47.9826 82.5736 40.3678 62.7689 40.3678H60.1764C58.8903 37.5516 55.9217 35.7979 52.5616 35.7979H52.3328C47.5393 35.7979 43.803 39.9154 43.9606 44.7089C44.1131 49.2738 47.9968 53.0863 52.6429 53.0863H53.0191C54.667 53.0226 56.2619 52.486 57.613 51.5404C58.9642 50.5948 60.0147 49.2803 60.639 47.7538H63.4603C75.1977 47.7538 86.3098 51.18 96.4409 57.8799C104.203 62.9886 109.769 69.6884 112.896 77.6896C115.631 84.2369 115.483 90.6368 112.667 95.9743C108.321 104.347 101.006 108.769 91.3373 108.769C85.2423 108.769 79.305 106.863 76.255 105.495C74.425 107.01 71.375 109.527 69.1688 111.052C75.8687 114.091 82.6498 115.845 89.1972 115.845C104.051 115.845 115.092 107.473 119.285 99.3954C123.85 90.2556 123.474 74.8734 111.813 61.6974L111.742 61.8499ZM32.9908 83.6269C33.1433 88.1968 37.0218 92.0043 41.6731 92.0043H41.9781C43.1228 91.9784 44.2507 91.7238 45.2954 91.2553C46.3401 90.7868 47.2805 90.114 48.0612 89.2765C48.8419 88.4389 49.4471 87.4536 49.8411 86.3786C50.2351 85.3036 50.41 84.1606 50.3554 83.0169C50.3554 78.4419 46.3955 74.6447 41.7493 74.6447H41.4443C41.1393 74.6447 40.6818 74.6447 40.2955 74.7921C33.9769 64.1273 31.3082 52.6949 32.3045 40.3678C32.9145 31.0754 35.9645 22.998 41.4393 16.2982C46.0143 10.5845 54.6203 7.75819 60.4865 7.61585C76.9362 7.30577 83.7936 27.8018 84.3223 35.9504L91.9371 38.2379C90.1833 13.2482 74.6538 0.148438 59.8003 0.148438C45.8516 0.148438 32.9908 10.2795 27.8058 25.133C20.7247 44.9326 25.3708 63.9799 34.0583 79.2146C33.2958 80.2058 32.8383 81.9545 32.9908 83.6269Z" fill="#9BC0ED"/>
</svg>
